<svg version="1.1" viewBox="0.0 0.0 765.6955380577427 179.0734908136483" fill="none" stroke="none" stroke-linecap="square" stroke-miterlimit="10" xmlns:xlink="http://www.w3.org/1999/xlink" xmlns="http://www.w3.org/2000/svg"><clipPath id="p.0"><path d="m0 0l765.69556 0l0 179.07349l-765.69556 0l0 -179.07349z" clip-rule="nonzero"/></clipPath><g clip-path="url(#p.0)"><path fill="#000000" fill-opacity="0.0" d="m0 0l765.69556 0l0 179.07349l-765.69556 0z" fill-rule="evenodd"/><g filter="url(#shadowFilter-p.1)"><use xlink:href="#p.1" transform="matrix(1.0 0.0 0.0 1.0 0.0 2.0)"/></g><defs><filter id="shadowFilter-p.1" filterUnits="userSpaceOnUse"><feGaussianBlur in="SourceAlpha" stdDeviation="2.0" result="blur"/><feComponentTransfer in="blur" color-interpolation-filters="sRGB"><feFuncR type="linear" slope="0" intercept="0.0"/><feFuncG type="linear" slope="0" intercept="0.0"/><feFuncB type="linear" slope="0" intercept="0.0"/><feFuncA type="linear" slope="0.5" intercept="0"/></feComponentTransfer></filter></defs><g id="p.1"><path fill="#000000" fill-opacity="0.0" d="m32.89501 24.745407l142.01575 0l0 150.67717l-142.01575 0z" fill-rule="evenodd"/><path fill="#000000" d="m91.89501 145.07353l0 -16.65625l-16.671875 0l0 -16.671875l-16.65625 0l0 -16.671875l-16.671875 0l0 -66.65625l33.328125 0l0 50.0l16.671875 0l0 16.65625l16.671875 0l0 -16.65625l16.65625 0l0 -50.0l33.328133 0l0 66.65625l-16.65625 0l0 16.671875l-16.671883 0l0 16.671875l-16.65625 0l0 16.65625l-16.671875 0z" fill-rule="nonzero"/></g><g filter="url(#shadowFilter-p.2)"><use xlink:href="#p.2" transform="matrix(1.0 0.0 0.0 1.0 0.0 2.0)"/></g><defs><filter id="shadowFilter-p.2" filterUnits="userSpaceOnUse"><feGaussianBlur in="SourceAlpha" stdDeviation="2.0" result="blur"/><feComponentTransfer in="blur" color-interpolation-filters="sRGB"><feFuncR type="linear" slope="0" intercept="0.0"/><feFuncG type="linear" slope="0" intercept="0.0"/><feFuncB type="linear" slope="0" intercept="0.0"/><feFuncA type="linear" slope="0.5" intercept="0"/></feComponentTransfer></filter></defs><g id="p.2"><path fill="#000000" fill-opacity="0.0" d="m165.47769 46.934383l608.85034 0l0 93.85826l-608.85034 0z" fill-rule="evenodd"/><path fill="#674ea7" d="m174.47769 122.734375l0 -70.0l20.0 0l0 10.0l10.0 0l0 9.999996l10.0 0l0 -9.999996l10.0 0l0 -10.0l20.0 0l0 70.0l-20.0 0l0 -40.0l-10.0 0l0 20.0l-10.0 0l0 -20.0l-10.0 0l0 40.0l-20.0 0zm89.99991 0l0 -10.0l-9.999985 0l0 -10.0l9.999985 0l0 -10.0l40.0 0l0 -10.0l-40.0 0l0 -10.0l50.0 0l0 10.0l10.0 0l0 40.0l-60.0 0zm10.0 -10.0l30.0 0l0 -10.0l-30.0 0l0 10.0zm69.99994 10.0l0 -10.0l-10.0 0l0 -30.0l10.0 0l0 -10.0l60.0 0l0 10.0l-50.0 0l0 30.0l50.0 0l0 10.0l-60.0 0zm69.99991 0l0 -70.0l20.0 0l0 19.999996l40.0 0l0 10.0l10.0 0l0 40.0l-20.0 0l0 -40.0l-30.0 0l0 40.0l-20.0 0zm109.99991 -59.999996l0 -10.0l20.0 0l0 10.0l-20.0 0zm-19.99997 59.999996l0 -10.0l19.99997 0l0 -30.0l-10.0 0l0 -10.0l30.0 0l0 40.0l20.0 0l0 10.0l-59.99997 0zm69.99991 0l0 -50.0l60.0 0l0 10.0l10.0 0l0 40.0l-20.0 0l0 -40.0l-30.0 0l0 40.0l-20.0 0zm89.99994 0l0 -10.0l-10.0 0l0 -10.0l10.0 0l0 -10.0l40.0 0l0 -10.0l-40.0 0l0 -10.0l50.0 0l0 10.0l10.0 0l0 40.0l-60.0 0zm10.0 -10.0l30.0 0l0 -10.0l-30.0 0l0 10.0z" fill-rule="nonzero"/></g></g></svg>